<?xml version="1.0" encoding="UTF-8"?>
<svg viewBox="0 0 36 36" version="1.1" xmlns="http://www.w3.org/2000/svg" xmlns:xlink="http://www.w3.org/1999/xlink">
    <defs>
        <linearGradient x1="50%" y1="0%" x2="50%" y2="100%" id="linearGradient-1">
            <stop stop-color="#FF7C38" offset="0%"></stop>
            <stop stop-color="#FD4D13" offset="100%"></stop>
        </linearGradient>
        <filter x="0.0%" y="-0.0%" width="100.0%" height="100.0%" filterUnits="objectBoundingBox" id="filter-2">
            <feGaussianBlur stdDeviation="0" in="SourceGraphic"></feGaussianBlur>
        </filter>
    </defs>
    <g id="页面-1" stroke="none" stroke-width="1" fill="none" fill-rule="evenodd">
        <g id="内网切图汇总" transform="translate(-80.000000, -278.000000)">
            <g id="内网图标/招聘内推" transform="translate(-36.000000, 186.000000)">
                <g id="编组" transform="translate(116.000000, 92.000000)">
                    <circle id="椭圆形" fill="#0ECE79" cx="18" cy="8" r="5"></circle>
                    <path
                        d="M11,25 C12.3414882,25 13.7909517,25.1079754 15.3483907,25.3239263 C19.0996565,25.8440485 21.7189981,29.306706 21.1988568,33.057969 C21.1694353,33.2701568 21.1300951,33.4807909 21.0809817,33.689182 L21,34 L1,34 C-0.0404107194,30.3585625 2.06813811,26.5631746 5.70957563,25.5227639 C6.01853895,25.4344886 6.33332497,25.3680393 6.65160927,25.3239263 C8.20904827,25.1079754 9.65851185,25 11,25 Z M11,14 C13.7614237,14 16,16.2385763 16,19 C16,21.7614237 13.7614237,24 11,24 C8.23857625,24 6,21.7614237 6,19 C6,16.2385763 8.23857625,14 11,14 Z"
                        id="形状结合" fill="#2C67FF"></path>
                    <path
                        d="M25,25 C26.3414882,25 27.7909517,25.1079754 29.3483907,25.3239263 C33.0996565,25.8440485 35.7189981,29.306706 35.1988568,33.057969 C35.1694353,33.2701568 35.1300951,33.4807909 35.0809817,33.689182 L35,34 L15,34 C13.9595893,30.3585625 16.0681381,26.5631746 19.7095756,25.5227639 C20.018539,25.4344886 20.333325,25.3680393 20.6516093,25.3239263 C22.2090483,25.1079754 23.6585118,25 25,25 Z M25,14 C27.7614237,14 30,16.2385763 30,19 C30,21.7614237 27.7614237,24 25,24 C22.2385763,24 20,21.7614237 20,19 C20,16.2385763 22.2385763,14 25,14 Z"
                        id="形状结合" fill="url(#linearGradient-1)"></path>
                    <g id="形状结合" transform="translate(0.734395, 14.000000)" fill="#025D99">
                        <path
                            d="M20.464462,19.057969 C20.4350405,19.2701568 20.3957003,19.4807909 20.346587,19.689182 L20.2656052,20 L14.2656052,20 C13.4013958,16.975267 14.7098648,13.8443132 17.2648161,12.2742918 C19.511223,13.6565597 20.8499239,16.2780151 20.464462,19.057969 Z"
                            filter="url(#filter-2)"></path>
                    </g>
                </g>
            </g>
        </g>
    </g>
</svg>